<?xml version="1.0" encoding="UTF-8" standalone="no"?>
<svg
   xmlns:dc="http://purl.org/dc/elements/1.1/"
   xmlns:cc="http://creativecommons.org/ns#"
   xmlns:rdf="http://www.w3.org/1999/02/22-rdf-syntax-ns#"
   xmlns:svg="http://www.w3.org/2000/svg"
   xmlns="http://www.w3.org/2000/svg"
   width="1202.9692"
   height="742.75793"
   viewBox="0 0 318.28562 196.52137"
   version="1.1"
   id="svg1365">
  <defs
     id="defs1359" />
  <metadata
     id="metadata1362">
    <rdf:RDF>
      <cc:Work
         rdf:about="">
        <dc:format>image/svg+xml</dc:format>
        <dc:type
           rdf:resource="http://purl.org/dc/dcmitype/StillImage" />
        <dc:title />
      </cc:Work>
    </rdf:RDF>
  </metadata>
  <g
     id="layer4"
     style="display:inline"
     transform="translate(0.5400334,0.52924603)">
    <path
       id="path2209"
       style="fill:none;stroke:#939597;stroke-width:1.05833;stroke-linecap:butt;stroke-linejoin:miter;stroke-miterlimit:4;stroke-dasharray:none;stroke-opacity:1"
       d="m 12.689132,8.3001485e-5 287.713508,-9e-12 c 7.0358,-10e-13 12.7,5.664199998524 12.7,12.699999998524 V 181.23648 c 0,7.0358 -5.6642,12.7 -12.7,12.7 H 12.689132 c -7.0358004,0 -12.70000037,-5.6642 -12.70000037,-12.7 V 12.700083 c 0,-7.0358 5.66419997,-12.699999998515 12.70000037,-12.699999998515 z m 0.0218,-1.64e-4 C 5.6751316,-8.0998515e-5 0.01093163,5.664119 0.01093163,12.699919 v 2.094963 H 313.12437 v -2.094963 c 0,-7.0358 -5.6642,-12.699999998525 -12.7,-12.699999998524 z" />
    <circle
       style="display:inline;fill:none;fill-opacity:1;stroke:#939597;stroke-width:1.05833;stroke-linecap:round;stroke-linejoin:round;stroke-miterlimit:4;stroke-dasharray:none;stroke-opacity:1;paint-order:stroke fill markers"
       id="path2485-4-2-7"
       cx="50.901878"
       cy="7.7492194"
       r="2.7541635" />
    <circle
       style="display:inline;fill:none;fill-opacity:1;stroke:#939597;stroke-width:1.05833;stroke-linecap:round;stroke-linejoin:round;stroke-miterlimit:4;stroke-dasharray:none;stroke-opacity:1;paint-order:stroke fill markers"
       id="path2485-4-26-1"
       cx="21.627926"
       cy="7.7492194"
       r="2.7541635" />
    <circle
       style="display:inline;fill:none;fill-opacity:1;stroke:#939597;stroke-width:1.05833;stroke-linecap:round;stroke-linejoin:round;stroke-miterlimit:4;stroke-dasharray:none;stroke-opacity:1;paint-order:stroke fill markers"
       id="path2485-4-1-9"
       cx="36.264904"
       cy="7.7492194"
       r="2.7541635" />
  </g>
</svg>
