<?xml version="1.0" encoding="UTF-8" standalone="no"?>
<svg
   xmlns:dc="http://purl.org/dc/elements/1.1/"
   xmlns:cc="http://creativecommons.org/ns#"
   xmlns:rdf="http://www.w3.org/1999/02/22-rdf-syntax-ns#"
   xmlns:svg="http://www.w3.org/2000/svg"
   xmlns="http://www.w3.org/2000/svg"
   width="1202.9692"
   height="742.75793"
   viewBox="0 0 318.28562 196.52137"
   version="1.1"
   id="svg1365">
  <defs
     id="defs1359" />
  <metadata
     id="metadata1362">
    <rdf:RDF>
      <cc:Work
         rdf:about="">
        <dc:format>image/svg+xml</dc:format>
        <dc:type
           rdf:resource="http://purl.org/dc/dcmitype/StillImage" />
        <dc:title />
      </cc:Work>
    </rdf:RDF>
  </metadata>
  <g
     id="layer3"
     style="display:inline"
     transform="translate(0.5400334,0.52924603)">
    <rect
       style="fill:#b7c7e3;fill-opacity:1;stroke:none;stroke-width:2.00659;stroke-linecap:round;stroke-linejoin:round;stroke-miterlimit:4;stroke-dasharray:none;stroke-opacity:1;paint-order:stroke fill markers"
       id="rect2240-8-9"
       width="108.12834"
       height="69.636017"
       x="15.202677"
       y="25.275833"
       rx="3.6651499"
       ry="3.6651499" />
    <path
       style="fill:#5c88da;fill-opacity:1;stroke:none;stroke-width:1.05833;stroke-linecap:round;stroke-linejoin:round;stroke-miterlimit:4;stroke-dasharray:none;stroke-opacity:1;paint-order:stroke fill markers"
       id="path2214-2-4"
       transform="matrix(1.0611859,0,0,0.75749025,123.43434,-17.488727)"
       d="m -51.053096,148.38552 -23.745045,0 -23.745046,0 11.872522,-20.56381 11.872524,-20.56381 11.872523,20.56381 z" />
    <path
       id="path2214-5-6-8"
       style="fill:#5c88da;fill-opacity:1;stroke:none;stroke-width:1.53518;stroke-linecap:round;stroke-linejoin:round;stroke-miterlimit:4;stroke-dasharray:none;stroke-opacity:1;paint-order:stroke fill markers"
       d="m 78.897209,44.515895 -20.387397,25.197906 -3.900485,4.821243 3.881697,4.799777 12.598952,15.57689 h 7.807233 40.774801 L 99.284607,69.713801 Z" />
    <circle
       style="fill:#5c88da;fill-opacity:1;stroke:none;stroke-width:0.458141;stroke-linecap:round;stroke-linejoin:round;stroke-miterlimit:4;stroke-dasharray:none;stroke-opacity:1;paint-order:stroke fill markers"
       id="path2238-6-1"
       cx="42.239403"
       cy="47.72501"
       r="7.788444" />
    <circle
       style="fill:#ef6079;fill-opacity:1;stroke:none;stroke-width:2.47222;stroke-linecap:round;stroke-linejoin:round;stroke-miterlimit:4;stroke-dasharray:none;stroke-opacity:1;paint-order:stroke fill markers"
       id="path2485-7-5-2"
       cx="178.4429"
       cy="88.464691"
       r="25.734488" />
    <path
       style="fill:#ffffff;fill-opacity:1;stroke:none;stroke-width:0.529167;stroke-linecap:round;stroke-linejoin:round;stroke-miterlimit:4;stroke-dasharray:none;stroke-opacity:1;paint-order:stroke fill markers"
       id="path3340-8"
       transform="matrix(2.0826407,0.05576225,-0.05576225,2.0826407,-16.798792,-33.078867)"
       d="m 100.94263,55.380494 -9.907876,6.293672 -0.49654,-11.727312 z" />
    <path
       id="path3373-0-1-1"
       style="fill:#dae8be;fill-opacity:1;stroke:none;stroke-width:0.435785;stroke-linecap:round;stroke-linejoin:round;stroke-miterlimit:4;stroke-dasharray:none;stroke-opacity:1;paint-order:stroke fill markers"
       d="m 32.646523,144.0215 a 20.1556,20.1556 0 0 0 -20.155479,20.15548 20.1556,20.1556 0 0 0 20.155479,20.15591 20.1556,20.1556 0 0 0 19.952492,-17.3016 l -10.2201,-0.23874 a 10.0778,10.0778 0 0 1 -9.732392,7.46238 10.0778,10.0778 0 0 1 -10.077519,-10.07795 10.0778,10.0778 0 0 1 10.072845,-10.07752 10.0778,10.0778 0 0 1 0.0048,0 10.0778,10.0778 0 0 1 4.572337,1.09712 l 7.031708,-7.49942 A 20.1556,20.1556 0 0 0 32.646649,144.0215 Z" />
    <path
       id="path3373-1-5-8"
       style="fill:#eaaeb4;fill-opacity:1;stroke:none;stroke-width:0.390553;stroke-linecap:round;stroke-linejoin:round;stroke-miterlimit:4;stroke-dasharray:none;stroke-opacity:1;paint-order:stroke fill markers"
       d="m 47.252392,147.00388 -6.301851,6.72102 c 3.027465,1.54127 4.933976,4.65104 4.934147,8.04824 -6.4e-5,0.79157 -0.104217,1.5797 -0.309697,2.34409 l 9.159286,0.21398 c 0.121292,-0.8473 0.182228,-1.70214 0.182314,-2.55807 -1.5e-4,-5.8767 -2.859088,-11.38599 -7.664199,-14.76926 z" />
    <rect
       style="fill:#ffffff;fill-opacity:1;stroke:none;stroke-width:0.76993;stroke-linecap:round;stroke-linejoin:round;stroke-miterlimit:4;stroke-dasharray:none;stroke-opacity:1;paint-order:stroke fill markers"
       id="rect2487-2-2-65-8"
       width="34.082264"
       height="19.998472"
       x="63.265564"
       y="161.00078"
       rx="1.2648747"
       ry="1.8746248" />
    <rect
       style="fill:#ffffff;fill-opacity:1;stroke:none;stroke-width:0.586991;stroke-linecap:round;stroke-linejoin:round;stroke-miterlimit:4;stroke-dasharray:none;stroke-opacity:1;paint-order:stroke fill markers"
       id="rect2487-2-2-3-1"
       width="19.730154"
       height="20.07959"
       x="102.84851"
       y="160.96497"
       rx="0.73223346"
       ry="1.8822285" />
    <circle
       style="fill:#c7e0d7;fill-opacity:1;stroke:none;stroke-width:0.529167;stroke-linecap:round;stroke-linejoin:round;stroke-miterlimit:4;stroke-dasharray:none;stroke-opacity:1;paint-order:stroke fill markers"
       id="path2485-7-93-9"
       cx="26.621641"
       cy="116.17211"
       r="5.508327" />
    <rect
       style="fill:#c7e0d7;fill-opacity:1;stroke:none;stroke-width:0.50584;stroke-linecap:round;stroke-linejoin:round;stroke-miterlimit:4;stroke-dasharray:none;stroke-opacity:1;paint-order:stroke fill markers"
       id="rect2487-2-2-6"
       width="27.25984"
       height="10.792568"
       x="264.53662"
       y="167.97704"
       rx="1.011678"
       ry="1.011678" />
    <rect
       style="fill:#b7c7e3;fill-opacity:1;stroke:none;stroke-width:1.10774;stroke-linecap:round;stroke-linejoin:round;stroke-miterlimit:4;stroke-dasharray:none;stroke-opacity:1;paint-order:stroke fill markers"
       id="rect2240-93"
       width="59.692554"
       height="38.442757"
       x="139.24127"
       y="140.31956"
       rx="2.023356"
       ry="2.023356" />
    <path
       style="fill:#5c88da;fill-opacity:1;stroke:none;stroke-width:1.05833;stroke-linecap:round;stroke-linejoin:round;stroke-miterlimit:4;stroke-dasharray:none;stroke-opacity:1;paint-order:stroke fill markers"
       id="path2214-9"
       transform="matrix(0.58583059,0,0,0.4181746,198.99088,116.71127)"
       d="m -51.053096,148.38552 -23.745045,0 -23.745046,0 11.872522,-20.56381 11.872524,-20.56381 11.872523,20.56381 z" />
    <path
       id="path2214-5-4"
       style="fill:#5c88da;fill-opacity:1;stroke:none;stroke-width:0.847503;stroke-linecap:round;stroke-linejoin:round;stroke-miterlimit:4;stroke-dasharray:none;stroke-opacity:1;paint-order:stroke fill markers"
       d="m 174.40403,150.94112 -11.25492,13.91057 -2.15326,2.66159 2.14289,2.64973 6.9553,8.59926 h 4.30999 22.50984 l -11.25492,-13.91058 z" />
    <circle
       style="fill:#5c88da;fill-opacity:1;stroke:none;stroke-width:0.252919;stroke-linecap:round;stroke-linejoin:round;stroke-miterlimit:4;stroke-dasharray:none;stroke-opacity:1;paint-order:stroke fill markers"
       id="path2238-7"
       cx="154.16696"
       cy="152.71268"
       r="4.2996321" />
    <path
       id="path2209-3"
       style="display:inline;fill:none;stroke:#5c88da;stroke-width:1.5755;stroke-linecap:butt;stroke-linejoin:miter;stroke-miterlimit:4;stroke-dasharray:none;stroke-opacity:1"
       d="m 235.58602,31.24542 h 12.99791 m -66.95897,0 h 42.14473" />
    <circle
       style="display:inline;fill:#d6beaf;fill-opacity:1;stroke:none;stroke-width:0.529167;stroke-linecap:round;stroke-linejoin:round;stroke-miterlimit:4;stroke-dasharray:none;stroke-opacity:1;paint-order:stroke fill markers"
       id="path2485-7-93-9-5"
       cx="249.73373"
       cy="62.438992"
       r="5.508327" />
    <circle
       style="display:inline;fill:#b7c7e3;fill-opacity:1;stroke:none;stroke-width:0.529167;stroke-linecap:round;stroke-linejoin:round;stroke-miterlimit:4;stroke-dasharray:none;stroke-opacity:1;paint-order:stroke fill markers"
       id="path2485-7-93-9-9"
       cx="249.56505"
       cy="96.790581"
       r="5.508327" />
    <circle
       style="display:inline;fill:#d6beaf;fill-opacity:1;stroke:none;stroke-width:1.05833;stroke-linecap:round;stroke-linejoin:round;stroke-miterlimit:4;stroke-dasharray:none;stroke-opacity:1;paint-order:stroke fill markers"
       id="path2485-5-0"
       cx="207.87314"
       cy="173.26836"
       r="5.2654996" />
    <rect
       style="display:inline;fill:#c7e0d7;fill-opacity:1;stroke:none;stroke-width:1.05833;stroke-linecap:round;stroke-linejoin:round;stroke-miterlimit:4;stroke-dasharray:none;stroke-opacity:1;paint-order:stroke fill markers"
       id="rect2487-6-2"
       width="27.25984"
       height="10.792568"
       x="216.88329"
       y="167.96468"
       rx="1.011678"
       ry="1.011678" />
    <circle
       style="display:inline;fill:#b7c7e3;fill-opacity:1;stroke:none;stroke-width:1.05833;stroke-linecap:round;stroke-linejoin:round;stroke-miterlimit:4;stroke-dasharray:none;stroke-opacity:1;paint-order:stroke fill markers"
       id="path2485-0-93-3"
       cx="255.5731"
       cy="173.32739"
       r="5.2654996" />
  </g>
</svg>
