<?xml version="1.0" encoding="UTF-8" standalone="no"?>
<svg
   xmlns:dc="http://purl.org/dc/elements/1.1/"
   xmlns:cc="http://creativecommons.org/ns#"
   xmlns:rdf="http://www.w3.org/1999/02/22-rdf-syntax-ns#"
   xmlns:svg="http://www.w3.org/2000/svg"
   xmlns="http://www.w3.org/2000/svg"
   width="465.99933"
   height="742.75793"
   viewBox="0 0 123.29566 196.52137"
   version="1.1"
   id="svg1365">
  <defs
     id="defs1359" />
  <metadata
     id="metadata1362">
    <rdf:RDF>
      <cc:Work
         rdf:about="">
        <dc:format>image/svg+xml</dc:format>
        <dc:type
           rdf:resource="http://purl.org/dc/dcmitype/StillImage" />
        <dc:title />
      </cc:Work>
    </rdf:RDF>
  </metadata>
  <g
     id="layer3"
     style="display:inline"
     transform="translate(0.5400334,0.52924603)">
    <rect
       style="fill:#cccccc;fill-opacity:1;stroke:none;stroke-width:1.17186;stroke-linecap:round;stroke-linejoin:round;stroke-miterlimit:4;stroke-dasharray:none;stroke-opacity:1;paint-order:stroke fill markers"
       id="rect2240-8-9"
       width="63.147594"
       height="40.667847"
       x="5.5711303"
       y="36.943634"
       rx="2.1404693"
       ry="2.1404693" />
    <path
       style="fill:#b3b3b3;fill-opacity:1;stroke:none;stroke-width:1.05833;stroke-linecap:round;stroke-linejoin:round;stroke-miterlimit:4;stroke-dasharray:none;stroke-opacity:1;paint-order:stroke fill markers"
       id="path2214-2-4"
       transform="matrix(0.61973885,0,0,0.44237881,68.77906,11.968878)"
       d="m -51.053096,148.38552 -23.745045,0 -23.745046,0 11.872522,-20.56381 11.872524,-20.56381 11.872523,20.56381 z" />
    <path
       id="path2214-5-6-8"
       style="fill:#b3b3b3;fill-opacity:1;stroke:none;stroke-width:0.896557;stroke-linecap:round;stroke-linejoin:round;stroke-miterlimit:4;stroke-dasharray:none;stroke-opacity:1;paint-order:stroke fill markers"
       d="m 42.769115,48.179946 -11.906361,14.715727 -2.277906,2.815635 2.266934,2.803098 7.357863,9.096995 h 4.55947 23.812723 L 54.675477,62.895673 Z" />
    <circle
       style="fill:#b3b3b3;fill-opacity:1;stroke:none;stroke-width:0.267557;stroke-linecap:round;stroke-linejoin:round;stroke-miterlimit:4;stroke-dasharray:none;stroke-opacity:1;paint-order:stroke fill markers"
       id="path2238-6-1"
       cx="21.360737"
       cy="50.054089"
       r="4.5484977" />
    <circle
       style="fill:#999999;fill-opacity:1;stroke:none;stroke-width:0.264583;stroke-linecap:round;stroke-linejoin:round;stroke-miterlimit:4;stroke-dasharray:none;stroke-opacity:1;paint-order:stroke fill markers"
       id="path2485-7-0-4"
       cx="81.999588"
       cy="25.708944"
       r="2.7541635" />
    <circle
       style="fill:#999999;fill-opacity:1;stroke:none;stroke-width:0.264583;stroke-linecap:round;stroke-linejoin:round;stroke-miterlimit:4;stroke-dasharray:none;stroke-opacity:1;paint-order:stroke fill markers"
       id="path2485-7-0-7-4"
       cx="67.36261"
       cy="25.708944"
       r="2.7541635" />
    <circle
       style="fill:#999999;fill-opacity:1;stroke:none;stroke-width:0.264583;stroke-linecap:round;stroke-linejoin:round;stroke-miterlimit:4;stroke-dasharray:none;stroke-opacity:1;paint-order:stroke fill markers"
       id="path2485-7-0-2-3"
       cx="38.088654"
       cy="25.708944"
       r="2.7541635" />
    <circle
       style="fill:#999999;fill-opacity:1;stroke:none;stroke-width:0.264583;stroke-linecap:round;stroke-linejoin:round;stroke-miterlimit:4;stroke-dasharray:none;stroke-opacity:1;paint-order:stroke fill markers"
       id="path2485-7-0-6-5"
       cx="52.725632"
       cy="25.708944"
       r="2.7541635" />
    <circle
       style="fill:#cccccc;fill-opacity:1;stroke:none;stroke-width:1.2899;stroke-linecap:round;stroke-linejoin:round;stroke-miterlimit:4;stroke-dasharray:none;stroke-opacity:1;paint-order:stroke fill markers"
       id="path2485-7-5-2"
       cx="94.027565"
       cy="56.730324"
       r="13.427142" />
    <path
       style="fill:#8f8f8f;fill-opacity:1;stroke:none;stroke-width:0.529167;stroke-linecap:round;stroke-linejoin:round;stroke-miterlimit:4;stroke-dasharray:none;stroke-opacity:1;paint-order:stroke fill markers"
       id="path3340-8"
       transform="matrix(1.0866318,0.02909433,-0.02909433,1.0866318,-7.8411139,-6.6858414)"
       d="m 100.94263,55.380494 -9.907876,6.293672 -0.49654,-11.727312 z" />
    <path
       id="path3373-0-1-1"
       style="fill:#8f8f8f;fill-opacity:1;stroke:none;stroke-width:0.364626;stroke-linecap:round;stroke-linejoin:round;stroke-miterlimit:4;stroke-dasharray:none;stroke-opacity:1;paint-order:stroke fill markers"
       d="m 31.837386,121.24172 a 16.864392,16.864392 0 0 0 -16.864291,16.86429 16.864392,16.864392 0 0 0 16.864291,16.86465 16.864392,16.864392 0 0 0 16.694442,-14.47642 l -8.551253,-0.19976 a 8.4321955,8.4321955 0 0 1 -8.143189,6.24385 8.4321955,8.4321955 0 0 1 -8.431968,-8.43232 8.4321955,8.4321955 0 0 1 8.428052,-8.43196 8.4321955,8.4321955 0 0 1 0.0039,0 8.4321955,8.4321955 0 0 1 3.825722,0.91797 l 5.883504,-6.27484 a 16.864392,16.864392 0 0 0 -9.709226,-3.07546 z" />
    <path
       id="path3373-1-5-8"
       style="fill:#333333;fill-opacity:1;stroke:none;stroke-width:0.364626;stroke-linecap:round;stroke-linejoin:round;stroke-miterlimit:4;stroke-dasharray:none;stroke-opacity:1;paint-order:stroke fill markers"
       d="m 41.546618,124.31718 -5.883507,6.27484 c 2.826495,1.43896 4.606437,4.34229 4.606603,7.51399 -6.2e-5,0.73901 -0.09728,1.4748 -0.289142,2.18847 l 8.551259,0.19976 c 0.113246,-0.79104 0.170128,-1.58913 0.17021,-2.38823 -1.38e-4,-5.48659 -2.669287,-10.63016 -7.155423,-13.78883 z" />
    <rect
       style="fill:#cccccc;fill-opacity:1;stroke:none;stroke-width:0.644208;stroke-linecap:round;stroke-linejoin:round;stroke-miterlimit:4;stroke-dasharray:none;stroke-opacity:1;paint-order:stroke fill markers"
       id="rect2487-2-2-65-8"
       width="28.516972"
       height="16.732922"
       x="56.675198"
       y="136.08432"
       rx="1.0583333"
       ry="1.5685173" />
    <rect
       style="fill:#cccccc;fill-opacity:1;stroke:none;stroke-width:0.491141;stroke-linecap:round;stroke-linejoin:round;stroke-miterlimit:4;stroke-dasharray:none;stroke-opacity:1;paint-order:stroke fill markers"
       id="rect2487-2-2-3-1"
       width="16.508417"
       height="16.800793"
       x="88.909103"
       y="136.05437"
       rx="0.61266702"
       ry="1.5748794" />
    <circle
       style="fill:#999999;fill-opacity:1;stroke:none;stroke-width:0.529167;stroke-linecap:round;stroke-linejoin:round;stroke-miterlimit:4;stroke-dasharray:none;stroke-opacity:1;paint-order:stroke fill markers"
       id="path2485-7-93-9"
       cx="19.382517"
       cy="174.00053"
       r="5.508327" />
    <circle
       style="fill:#cccccc;fill-opacity:1;stroke:none;stroke-width:0.348768;stroke-linecap:round;stroke-linejoin:round;stroke-miterlimit:4;stroke-dasharray:none;stroke-opacity:1;paint-order:stroke fill markers"
       id="path2485-7-9"
       cx="55.524181"
       cy="106.78872"
       r="3.6304743" />
    <rect
       style="fill:#cccccc;fill-opacity:1;stroke:none;stroke-width:0.348768;stroke-linecap:round;stroke-linejoin:round;stroke-miterlimit:4;stroke-dasharray:none;stroke-opacity:1;paint-order:stroke fill markers"
       id="rect2487-5-7"
       width="18.795206"
       height="7.4412961"
       x="61.736526"
       y="103.13194"
       rx="0.69753516"
       ry="0.69753516" />
    <circle
       style="fill:#cccccc;fill-opacity:1;stroke:none;stroke-width:0.348768;stroke-linecap:round;stroke-linejoin:round;stroke-miterlimit:4;stroke-dasharray:none;stroke-opacity:1;paint-order:stroke fill markers"
       id="path2485-0-9-3"
       cx="88.412514"
       cy="106.82942"
       r="3.6304743" />
    <rect
       style="fill:#cccccc;fill-opacity:1;stroke:none;stroke-width:0.348768;stroke-linecap:round;stroke-linejoin:round;stroke-miterlimit:4;stroke-dasharray:none;stroke-opacity:1;paint-order:stroke fill markers"
       id="rect2487-2-2-6"
       width="18.795206"
       height="7.4412961"
       x="94.624855"
       y="103.17263"
       rx="0.69753516"
       ry="0.69753516" />
    <rect
       style="fill:#cccccc;fill-opacity:1;stroke:none;stroke-width:0.763771;stroke-linecap:round;stroke-linejoin:round;stroke-miterlimit:4;stroke-dasharray:none;stroke-opacity:1;paint-order:stroke fill markers"
       id="rect2240-93"
       width="41.157021"
       height="26.50564"
       x="8.2358017"
       y="84.103226"
       rx="1.3950703"
       ry="1.3950703" />
    <path
       style="fill:#b3b3b3;fill-opacity:1;stroke:none;stroke-width:1.05833;stroke-linecap:round;stroke-linejoin:round;stroke-miterlimit:4;stroke-dasharray:none;stroke-opacity:1;paint-order:stroke fill markers"
       id="path2214-9"
       transform="matrix(0.40392044,0,0,0.28832442,49.432146,67.825701)"
       d="m -51.053096,148.38552 -23.745045,0 -23.745046,0 11.872522,-20.56381 11.872524,-20.56381 11.872523,20.56381 z" />
    <path
       id="path2214-5-4"
       style="fill:#b3b3b3;fill-opacity:1;stroke:none;stroke-width:0.584339;stroke-linecap:round;stroke-linejoin:round;stroke-miterlimit:4;stroke-dasharray:none;stroke-opacity:1;paint-order:stroke fill markers"
       d="m 32.47993,91.426591 -7.76008,9.591109 -1.484646,1.83512 1.477495,1.82694 4.795554,5.92905 h 2.971677 15.520158 l -7.760079,-9.59111 z" />
    <circle
       style="fill:#b3b3b3;fill-opacity:1;stroke:none;stroke-width:0.174383;stroke-linecap:round;stroke-linejoin:round;stroke-miterlimit:4;stroke-dasharray:none;stroke-opacity:1;paint-order:stroke fill markers"
       id="path2238-7"
       cx="18.526821"
       cy="92.648087"
       r="2.9645247" />
  </g>
</svg>
