<?xml version="1.0" encoding="UTF-8" standalone="no"?>
<svg
   xmlns:dc="http://purl.org/dc/elements/1.1/"
   xmlns:cc="http://creativecommons.org/ns#"
   xmlns:rdf="http://www.w3.org/1999/02/22-rdf-syntax-ns#"
   xmlns:svg="http://www.w3.org/2000/svg"
   xmlns="http://www.w3.org/2000/svg"
   xmlns:sodipodi="http://sodipodi.sourceforge.net/DTD/sodipodi-0.dtd"
   xmlns:inkscape="http://www.inkscape.org/namespaces/inkscape"
   width="204.08713mm"
   height="138.51622mm"
   viewBox="0 0 204.08713 138.51622"
   version="1.1"
   id="svg8"
   inkscape:version="1.0.2 (e86c870879, 2021-01-15)"
   sodipodi:docname="wave-circle.svg">
  <defs
     id="defs2">
    <inkscape:path-effect
       effect="bspline"
       id="path-effect1407"
       is_visible="true"
       lpeversion="1"
       weight="33.333333"
       steps="2"
       helper_size="0"
       apply_no_weight="true"
       apply_with_weight="true"
       only_selected="false" />
    <inkscape:path-effect
       effect="bspline"
       id="path-effect1405"
       is_visible="true"
       lpeversion="1"
       weight="33.333333"
       steps="2"
       helper_size="0"
       apply_no_weight="true"
       apply_with_weight="true"
       only_selected="false" />
    <inkscape:path-effect
       effect="bspline"
       id="path-effect1403"
       is_visible="true"
       lpeversion="1"
       weight="33.333333"
       steps="2"
       helper_size="0"
       apply_no_weight="true"
       apply_with_weight="true"
       only_selected="false" />
    <inkscape:path-effect
       effect="bspline"
       id="path-effect1363"
       is_visible="true"
       lpeversion="1"
       weight="33.333333"
       steps="2"
       helper_size="0"
       apply_no_weight="true"
       apply_with_weight="true"
       only_selected="false" />
    <inkscape:path-effect
       effect="bspline"
       id="path-effect1361"
       is_visible="true"
       lpeversion="1"
       weight="33.333333"
       steps="2"
       helper_size="0"
       apply_no_weight="true"
       apply_with_weight="true"
       only_selected="false" />
    <inkscape:path-effect
       effect="bspline"
       id="path-effect1359"
       is_visible="true"
       lpeversion="1"
       weight="33.333333"
       steps="2"
       helper_size="0"
       apply_no_weight="true"
       apply_with_weight="true"
       only_selected="false" />
    <inkscape:path-effect
       effect="bspline"
       id="path-effect1302"
       is_visible="true"
       lpeversion="1"
       weight="33.333333"
       steps="2"
       helper_size="0"
       apply_no_weight="true"
       apply_with_weight="true"
       only_selected="false" />
    <inkscape:path-effect
       effect="bspline"
       id="path-effect1278"
       is_visible="true"
       lpeversion="1"
       weight="33.333333"
       steps="2"
       helper_size="0"
       apply_no_weight="true"
       apply_with_weight="true"
       only_selected="false" />
    <inkscape:path-effect
       effect="bspline"
       id="path-effect1253"
       is_visible="true"
       lpeversion="1"
       weight="33.333333"
       steps="2"
       helper_size="0"
       apply_no_weight="true"
       apply_with_weight="true"
       only_selected="false" />
  </defs>
  <sodipodi:namedview
     id="base"
     pagecolor="#ffffff"
     bordercolor="#666666"
     borderopacity="1.0"
     inkscape:pageopacity="0.0"
     inkscape:pageshadow="2"
     inkscape:zoom="0.98994949"
     inkscape:cx="93.899555"
     inkscape:cy="227.65241"
     inkscape:document-units="mm"
     inkscape:current-layer="layer1"
     inkscape:document-rotation="0"
     showgrid="false"
     inkscape:window-width="1920"
     inkscape:window-height="1017"
     inkscape:window-x="0"
     inkscape:window-y="27"
     inkscape:window-maximized="1" />
  <metadata
     id="metadata5">
    <rdf:RDF>
      <cc:Work
         rdf:about="">
        <dc:format>image/svg+xml</dc:format>
        <dc:type
           rdf:resource="http://purl.org/dc/dcmitype/StillImage" />
        <dc:title />
      </cc:Work>
    </rdf:RDF>
  </metadata>
  <g
     inkscape:label="Layer 1"
     inkscape:groupmode="layer"
     id="layer1"
     transform="translate(371.09444,421.93353)">
    <circle
       style="fill:#00c1dc;fill-opacity:1;stroke-width:6.8556;stroke-linecap:round;stroke-linejoin:round;stroke-miterlimit:4;stroke-dasharray:none;stroke-opacity:0.984887;paint-order:stroke fill markers"
       id="path1255-7-2"
       cx="-236.26541"
       cy="-352.67542"
       r="69.25811" />
    <path
       style="fill:none;stroke:#8ae4d3;stroke-width:1.27231;stroke-linecap:round;stroke-linejoin:miter;stroke-miterlimit:4;stroke-dasharray:none;stroke-opacity:1"
       d="m -370.45828,-316.20249 c 1.40704,-3.08512 2.8141,-6.1703 5.31512,-7.83872 2.50102,-1.66843 6.09544,-1.91983 8.70277,-0.73737 2.60733,1.18246 4.2273,3.7983 6.21909,5.38229 1.9918,1.58399 4.35504,2.13616 6.44247,1.34252 2.08742,-0.79364 3.89911,-2.93295 5.52069,-4.90857 1.62158,-1.97562 3.05286,-3.78733 5.4628,-4.54265 2.40994,-0.75532 5.78581,-0.45522 8.10833,1.49123 2.32252,1.94646 3.55849,5.51103 5.47924,7.30529 1.92074,1.79426 4.52144,1.80552 6.51128,1.05682 1.98984,-0.74871 3.36891,-2.25735 4.84757,-3.8667 1.47865,-1.60935 3.05689,-3.31941 5.10734,-4.26662 2.05045,-0.94721 4.57256,-1.13146 6.57309,0.42705 2.00054,1.55851 3.47401,4.84777 5.50063,6.39105 2.02663,1.54329 4.57841,1.3196 6.4409,0.24878 1.86248,-1.07083 3.02125,-2.97857 4.34859,-4.4226 1.32733,-1.44404 2.79695,-2.39579 4.43597,-2.68903 1.63901,-0.29325 3.43976,0.0767 5.24024,0.44651"
       id="path1251-5-9"
       inkscape:path-effect="#path-effect1403"
       inkscape:original-d="m -370.45828,-316.20249 c 1.40736,-3.08497 2.81442,-6.17015 4.22127,-9.25571 3.59489,-0.25116 7.18931,-0.50256 10.78368,-0.75424 1.62035,2.61627 3.24032,5.23211 4.86013,7.84786 2.36365,0.55247 4.7269,1.10464 7.09002,1.65658 1.81205,-2.13917 3.62374,-4.27848 5.43527,-6.41818 1.43163,-1.81156 2.86292,-3.62326 4.29404,-5.43535 3.38845,0.30146 6.76432,0.60156 10.16435,0.90356 1.24518,3.59062 2.48115,7.15519 3.72137,10.73249 2.60112,0.0115 5.20182,0.0228 7.8024,0.0338 1.37938,-1.50842 2.75845,-3.01707 4.13725,-4.52597 1.57851,-1.70979 3.15674,-3.41986 4.73476,-5.13023 2.52263,-0.18401 5.04474,-0.36827 7.56693,-0.55282 1.47897,3.30124 2.95244,6.5905 4.4359,9.90237 2.5697,-0.22497 5.12149,-0.44865 7.6819,-0.67338 1.16484,-1.91702 2.32361,-3.82476 3.49366,-5.75175 1.48451,-0.96096 2.95413,-1.91272 4.43083,-2.86949 1.80109,0.37018 3.60184,0.74009 5.40236,1.10974"
       sodipodi:nodetypes="cccccccccccccccccc" />
    <path
       style="fill:none;stroke:#8ae4d3;stroke-width:1.27231;stroke-linecap:round;stroke-linejoin:miter;stroke-miterlimit:4;stroke-dasharray:none;stroke-opacity:1"
       d="m -370.45828,-305.15694 c 1.40704,-3.08512 2.8141,-6.17029 5.31512,-7.83872 2.50102,-1.66843 6.09544,-1.91984 8.70277,-0.73738 2.60733,1.18246 4.22731,3.79831 6.2191,5.38229 1.99178,1.58399 4.35504,2.13617 6.44246,1.34253 2.08742,-0.79365 3.8991,-2.93295 5.52068,-4.90858 1.62158,-1.97562 3.05287,-3.78733 5.46281,-4.54265 2.40994,-0.75532 5.78581,-0.45522 8.10833,1.49124 2.32251,1.94645 3.55849,5.51104 5.47924,7.30529 1.92074,1.79425 4.52144,1.80551 6.51128,1.05681 1.98984,-0.7487 3.36891,-2.25734 4.84757,-3.8667 1.47865,-1.60935 3.05688,-3.3194 5.10733,-4.26661 2.05046,-0.94721 4.57257,-1.13147 6.5731,0.42704 2.00054,1.55851 3.47401,4.84778 5.50063,6.39106 2.02662,1.54328 4.57841,1.31959 6.4409,0.24877 1.86248,-1.07082 3.02126,-2.97856 4.34859,-4.4226 1.32733,-1.44403 2.79695,-2.39579 4.43597,-2.68903 1.63901,-0.29325 3.43976,0.0767 5.24024,0.44651"
       id="path1251-3-5-1"
       inkscape:path-effect="#path-effect1405"
       inkscape:original-d="m -370.45828,-305.15694 c 1.40736,-3.08497 2.81442,-6.17014 4.22127,-9.25571 3.59489,-0.25116 7.18931,-0.50256 10.78368,-0.75425 1.62035,2.61627 3.24032,5.23212 4.86013,7.84786 2.36365,0.55247 4.7269,1.10465 7.09002,1.65659 1.81205,-2.13918 3.62374,-4.27848 5.43527,-6.41819 1.43163,-1.81155 2.86292,-3.62326 4.29404,-5.43535 3.38845,0.30147 6.76432,0.60157 10.16435,0.90357 1.24518,3.59061 2.48115,7.1552 3.72137,10.73248 2.60112,0.0115 5.20182,0.0228 7.8024,0.0338 1.37938,-1.50842 2.75845,-3.01706 4.13725,-4.52596 1.57851,-1.7098 3.15674,-3.41985 4.73476,-5.13024 2.52263,-0.18401 5.04474,-0.36826 7.56693,-0.55281 1.47897,3.30123 2.95244,6.5905 4.4359,9.90236 2.5697,-0.22496 5.12149,-0.44865 7.6819,-0.67338 1.16484,-1.91701 2.32361,-3.82476 3.49366,-5.75174 1.48451,-0.96097 2.95413,-1.91272 4.43083,-2.8695 1.80109,0.37019 3.60184,0.7401 5.40236,1.10974"
       sodipodi:nodetypes="cccccccccccccccccc" />
    <path
       style="fill:none;stroke:#8ae4d3;stroke-width:1.27231;stroke-linecap:round;stroke-linejoin:miter;stroke-miterlimit:4;stroke-dasharray:none;stroke-opacity:1"
       d="m -370.45828,-293.76556 c 1.40704,-3.08512 2.81409,-6.17028 5.31512,-7.83871 2.50102,-1.66843 6.09544,-1.91984 8.70277,-0.73738 2.60733,1.18246 4.2273,3.7983 6.21909,5.38229 1.99179,1.58399 4.35504,2.13616 6.44247,1.34252 2.08742,-0.79364 3.8991,-2.93294 5.52069,-4.90857 1.62158,-1.97562 3.05286,-3.78733 5.4628,-4.54265 2.40994,-0.75532 5.78581,-0.45522 8.10833,1.49124 2.32251,1.94645 3.55849,5.51103 5.47924,7.30528 1.92074,1.79426 4.52144,1.80552 6.51128,1.05682 1.98984,-0.7487 3.36892,-2.25735 4.84757,-3.8667 1.47865,-1.60935 3.05688,-3.3194 5.10733,-4.26661 2.05045,-0.94721 4.57257,-1.13147 6.5731,0.42704 2.00054,1.55851 3.474,4.84777 5.50063,6.39105 2.02663,1.54329 4.57841,1.3196 6.4409,0.24878 1.86248,-1.07083 3.02125,-2.97857 4.34859,-4.4226 1.32733,-1.44404 2.79695,-2.39579 4.43597,-2.68903 1.63901,-0.29325 3.43976,0.0767 5.24024,0.44651"
       id="path1251-3-6-6-2"
       inkscape:path-effect="#path-effect1407"
       inkscape:original-d="m -370.45828,-293.76556 c 1.40736,-3.08497 2.81442,-6.17013 4.22127,-9.2557 3.59489,-0.25117 7.18931,-0.50256 10.78368,-0.75425 1.62035,2.61627 3.24032,5.23211 4.86013,7.84786 2.36365,0.55247 4.7269,1.10464 7.09002,1.65659 1.81205,-2.13918 3.62374,-4.27848 5.43527,-6.41819 1.43163,-1.81156 2.86292,-3.62326 4.29404,-5.43535 3.38845,0.30146 6.76432,0.60156 10.16435,0.90357 1.24518,3.59061 2.48115,7.15519 3.72137,10.73248 2.60112,0.0115 5.20182,0.0228 7.8024,0.0338 1.37938,-1.50842 2.75845,-3.01707 4.13725,-4.52596 1.57851,-1.7098 3.15674,-3.41986 4.73476,-5.13024 2.52262,-0.18401 5.04474,-0.36827 7.56693,-0.55281 1.47897,3.30123 2.95244,6.59049 4.4359,9.90236 2.5697,-0.22497 5.12149,-0.44865 7.6819,-0.67338 1.16484,-1.91702 2.32361,-3.82476 3.49366,-5.75175 1.48451,-0.96096 2.95413,-1.91271 4.43083,-2.86949 1.80109,0.37019 3.60184,0.74009 5.40236,1.10974"
       sodipodi:nodetypes="cccccccccccccccccc" />
  </g>
</svg>
